<svg xmlns="http://www.w3.org/2000/svg" viewBox="0 0 608 134">
  <defs>
    <style>
      .cls-1 {
        fill: #cf2f4c;
      }

      .cls-2 {
        fill: #fff;
      }
    </style>
  </defs>
  <title>coreui angular</title>
  <g id="Warstwa_1" data-name="Warstwa 1">
    <g>
      <path class="cls-1" d="M360.4189,90.15l-2.4316-8.832a.2966.2966,0,0,0-.32-.1914H340.8989a.2945.2945,0,0,0-.32.1914l-2.3682,8.7686a.6588.6588,0,0,1-.7041.5761H336.291a.5877.5877,0,0,1-.48-.1924.5813.5813,0,0,1-.0962-.5117l12.0323-43.584a.6435.6435,0,0,1,.7041-.5117h1.6a.6439.6439,0,0,1,.7041.5117l12.16,43.584.064.1914c0,.3428-.2139.5127-.64.5127H361.123A.6427.6427,0,0,1,360.4189,90.15Zm-19.104-11.2314a.308.308,0,0,0,.2242.0957h15.4882a.3085.3085,0,0,0,.2237-.0957c.0639-.0645.0742-.1172.0322-.16L349.4111,49.831c-.0429-.085-.0859-.1279-.1279-.1279s-.0859.0429-.1279.1279l-7.8721,28.9277C341.24,78.8017,341.251,78.8544,341.3149,78.9189Z"/>
      <path class="cls-1" d="M399.5029,45.8632h1.2163a.5663.5663,0,0,1,.64.64v43.52a.5662.5662,0,0,1-.64.6406H399.311a.7516.7516,0,0,1-.768-.4482L379.2148,51.623c-.0859-.085-.16-.1172-.2236-.0967-.064.0225-.0962.0967-.0962.2246l.064,38.2715a.5658.5658,0,0,1-.64.6406H377.103a.5656.5656,0,0,1-.64-.6406v-43.52a.5657.5657,0,0,1,.64-.64h1.3443a.7515.7515,0,0,1,.7675.4473L398.543,84.7744c.0849.0869.16.1181.2241.0966s.0962-.0966.0962-.2246V46.5029A.5655.5655,0,0,1,399.5029,45.8632Z"/>
      <path class="cls-1" d="M419.8228,87.9423a11.2809,11.2809,0,0,1-3.3277-8.48v-22.4a11.2856,11.2856,0,0,1,3.3277-8.4795,13.6912,13.6912,0,0,1,17.6323-.0322,11.0486,11.0486,0,0,1,3.3594,8.3838v1.92a.5659.5659,0,0,1-.64.6407H438.959a.5656.5656,0,0,1-.64-.6407v-1.92a9.02,9.02,0,0,0-2.6557-6.7519,10.7712,10.7712,0,0,0-14.0166,0,9.0965,9.0965,0,0,0-2.6558,6.8164V79.5263a9.037,9.037,0,0,0,2.688,6.8164,9.7133,9.7133,0,0,0,7.04,2.5918,9.56,9.56,0,0,0,6.976-2.56,8.9656,8.9656,0,0,0,2.624-6.72v-8.32a.2268.2268,0,0,0-.2563-.2559h-8.3838a.5654.5654,0,0,1-.64-.6406V69.415a.5662.5662,0,0,1,.64-.6406h10.4961a.5666.5666,0,0,1,.64.6406v9.9834a11.3444,11.3444,0,0,1-3.3277,8.5761,13.7346,13.7346,0,0,1-17.664-.0322Z"/>
      <path class="cls-1" d="M461.3843,89.5751a10.9028,10.9028,0,0,1-4.3521-4.5439,14.46,14.46,0,0,1-1.5361-6.7842V46.5029a.5657.5657,0,0,1,.64-.64h1.2163a.566.566,0,0,1,.64.64v32a10.5444,10.5444,0,0,0,2.72,7.5517,10.36,10.36,0,0,0,14.3359,0,10.5488,10.5488,0,0,0,2.72-7.5517v-32a.5655.5655,0,0,1,.64-.64h1.2158a.5664.5664,0,0,1,.6406.64V78.247a13.0123,13.0123,0,0,1-3.3925,9.376,11.897,11.897,0,0,1-9.0235,3.5517A12.8553,12.8553,0,0,1,461.3843,89.5751Z"/>
      <path class="cls-1" d="M495.9053,90.0224v-43.52a.5657.5657,0,0,1,.64-.64h1.2163a.566.566,0,0,1,.64.64v41.664a.2259.2259,0,0,0,.2558.2559h19.2a.5663.5663,0,0,1,.64.64v.96a.5662.5662,0,0,1-.64.6406h-21.312A.5656.5656,0,0,1,495.9053,90.0224Z"/>
      <path class="cls-1" d="M554.644,90.15l-2.4321-8.832a.296.296,0,0,0-.32-.1914H535.124a.2945.2945,0,0,0-.32.1914l-2.3682,8.7686a.6586.6586,0,0,1-.7036.5761h-1.2163a.5871.5871,0,0,1-.48-.1924.5812.5812,0,0,1-.0957-.5117l12.0318-43.584a.643.643,0,0,1,.7036-.5117h1.6006a.6446.6446,0,0,1,.7041.5117l12.16,43.584.064.1914c0,.3428-.2139.5127-.64.5127h-1.2164A.6424.6424,0,0,1,554.644,90.15ZM535.54,78.9189a.308.308,0,0,0,.2242.0957H551.252a.31.31,0,0,0,.2241-.0957c.0639-.0645.0737-.1172.0317-.16L543.6362,49.831c-.0434-.085-.0864-.1279-.1284-.1279s-.0859.0429-.1279.1279l-7.8721,28.9277C535.4648,78.8017,535.4761,78.8544,535.54,78.9189Z"/>
      <path class="cls-1" d="M592.4482,90.15,583.68,69.415a.2515.2515,0,0,0-.2559-.1924H573.44a.2262.2262,0,0,0-.2558.2559V90.0224a.5663.5663,0,0,1-.6407.6406h-1.2158a.5654.5654,0,0,1-.64-.6406v-43.52a.5655.5655,0,0,1,.64-.64h12.544a9.9786,9.9786,0,0,1,7.7441,3.2315,12.2016,12.2016,0,0,1,2.9443,8.5439,12.4342,12.4342,0,0,1-2.24,7.584,9.3637,9.3637,0,0,1-6.08,3.7441q-.2563.129-.1279.32l8.7041,20.6075.0635.2558c0,.3428-.1914.5127-.5757.5127h-1.1519A.7028.7028,0,0,1,592.4482,90.15Zm-19.2636-41.792V66.8544a.2266.2266,0,0,0,.2558.2569h10.3037a7.6686,7.6686,0,0,0,6.0162-2.5928,9.8783,9.8783,0,0,0,2.3042-6.8154,10.2887,10.2887,0,0,0-2.2725-6.9766,7.6026,7.6026,0,0,0-6.0479-2.624H573.44A.2262.2262,0,0,0,573.1846,48.3583Z"/>
    </g>
    <g>
      <g>
        <path class="cls-2" d="M99.835,36.0577l-39-22.5167a12,12,0,0,0-12,0l-39,22.5166a12.0339,12.0339,0,0,0-6,10.3924V91.4833a12.0333,12.0333,0,0,0,6,10.3923l39,22.5167a12,12,0,0,0,12,0l39-22.5167a12.0331,12.0331,0,0,0,6-10.3923V46.45A12.0334,12.0334,0,0,0,99.835,36.0577Zm-2,55.4256a4,4,0,0,1-2,3.4641l-39,22.5167a4.0006,4.0006,0,0,1-4,0l-39-22.5167a4,4,0,0,1-2-3.4641V46.45a4,4,0,0,1,2-3.4642l39-22.5166a4,4,0,0,1,4,0l39,22.5166a4,4,0,0,1,2,3.4642Z"/>
        <path class="cls-2" d="M77.8567,82.0046h-2.866a4,4,0,0,0-1.9247.4934L55.7852,91.9833,35.835,80.4648V57.4872l19.95-11.5185,17.2893,9.4549a3.9993,3.9993,0,0,0,1.9192.4906h2.8632a2,2,0,0,0,2-2V51.2024a2,2,0,0,0-1.04-1.7547L59.628,38.9521a8.0391,8.0391,0,0,0-7.8428.09L31.8346,50.56a8.0246,8.0246,0,0,0-4,6.9287v22.976a8,8,0,0,0,4,6.9283l19.95,11.5186a8.0429,8.0429,0,0,0,7.8433.0879l19.19-10.5312a2,2,0,0,0,1.0378-1.7533v-2.71A2,2,0,0,0,77.8567,82.0046Z"/>
      </g>
      <g>
        <path class="cls-2" d="M172.58,45.3618a15.0166,15.0166,0,0,0-15,14.9995V77.6387a15,15,0,0,0,30,0V60.3613A15.0166,15.0166,0,0,0,172.58,45.3618Zm7,32.2769a7,7,0,0,1-14,0V60.3613a7,7,0,0,1,14,0Z"/>
        <path class="cls-2" d="M135.9138,53.4211a7.01,7.01,0,0,1,7.8681,6.0752.9894.9894,0,0,0,.9843.865h6.03a1.0108,1.0108,0,0,0,.9987-1.0971,15.0182,15.0182,0,0,0-15.7162-13.8837,15.2881,15.2881,0,0,0-14.2441,15.4163V77.2037A15.288,15.288,0,0,0,136.0792,92.62a15.0183,15.0183,0,0,0,15.7162-13.8842,1.0107,1.0107,0,0,0-.9987-1.0971h-6.03a.9894.9894,0,0,0-.9843.865,7.01,7.01,0,0,1-7.8679,6.0757,7.1642,7.1642,0,0,1-6.0789-7.1849V60.6057A7.1638,7.1638,0,0,1,135.9138,53.4211Z"/>
        <path class="cls-2" d="M218.7572,72.9277a12.1585,12.1585,0,0,0,7.1843-11.0771V58.1494A12.1494,12.1494,0,0,0,213.7921,46H196.835a1,1,0,0,0-1,1V91a1,1,0,0,0,1,1h6a1,1,0,0,0,1-1V74h6.6216l7.9154,17.4138a1,1,0,0,0,.91.5862h6.5911a1,1,0,0,0,.91-1.4138Zm-.8157-11.0771A4.1538,4.1538,0,0,1,213.7926,66h-9.8511V54h9.8511a4.1538,4.1538,0,0,1,4.1489,4.1494Z"/>
        <path class="cls-2" d="M260.835,46h-26a1,1,0,0,0-1,1V91a1,1,0,0,0,1,1h26a1,1,0,0,0,1-1V85a1,1,0,0,0-1-1h-19V72h13a1,1,0,0,0,1-1V65a1,1,0,0,0-1-1h-13V54h19a1,1,0,0,0,1-1V47A1,1,0,0,0,260.835,46Z"/>
        <path class="cls-2" d="M298.835,46h-6a1,1,0,0,0-1,1V69.6475a7.0066,7.0066,0,1,1-14,0V47a1,1,0,0,0-1-1h-6a1,1,0,0,0-1,1V69.6475a15.0031,15.0031,0,1,0,30,0V47A1,1,0,0,0,298.835,46Z"/>
        <rect class="cls-2" x="307.835" y="46" width="8" height="38" rx="1"/>
      </g>
    </g>
  </g>
</svg>
