<svg xmlns="http://www.w3.org/2000/svg" viewBox="0 0 706 134">
  <defs>
    <style>
      .cls-1 {
        fill: #fff;
      }

      .cls-2 {
        fill: #e797a5;
      }

      .cls-3 {
        fill: #cf2f4c;
      }
    </style>
  </defs>
  <title>coreui angular pro neg</title>
  <g id="Warstwa_1" data-name="Warstwa 1">
    <rect class="cls-1" x="611.8457" y="46" width="70.0001" height="37.9161" rx="2"/>
    <g>
      <path class="cls-2" d="M360.418,90.1507l-2.4317-8.832a.2965.2965,0,0,0-.32-.1914H340.8984a.2951.2951,0,0,0-.32.1914L338.21,90.0873a.6584.6584,0,0,1-.7037.5761H336.29a.5863.5863,0,0,1-.48-.1923.58.58,0,0,1-.0961-.5118l12.0317-43.5839a.6436.6436,0,0,1,.7041-.5118h1.6a.6442.6442,0,0,1,.7041.5118l12.16,43.5839.0644.1914c0,.3428-.2139.5127-.64.5127h-1.2163A.6426.6426,0,0,1,360.418,90.1507ZM341.3145,78.9193a.3057.3057,0,0,0,.2236.0957h15.4883a.3076.3076,0,0,0,.2236-.0957c.0645-.0645.0742-.1172.0322-.16L349.41,49.8314c-.043-.085-.086-.1279-.128-.1279s-.0859.0429-.1279.1279l-7.8721,28.9277C341.2393,78.8021,341.25,78.8548,341.3145,78.9193Z"/>
      <path class="cls-2" d="M399.5024,45.8636h1.2164a.5659.5659,0,0,1,.64.64v43.52a.5658.5658,0,0,1-.64.6406h-1.4083a.7517.7517,0,0,1-.768-.4482L379.2144,51.6234c-.086-.085-.16-.1172-.2242-.0967-.0634.0225-.0957.0967-.0957.2246l.064,38.2715a.5662.5662,0,0,1-.64.6406h-1.2159a.5656.5656,0,0,1-.64-.6406V46.5033a.5657.5657,0,0,1,.64-.64h1.3438a.7524.7524,0,0,1,.7681.4473l19.3281,38.4639c.0849.0869.16.1181.2241.0966s.0957-.0966.0957-.2246V46.5033A.5657.5657,0,0,1,399.5024,45.8636Z"/>
      <path class="cls-2" d="M419.8223,87.9427a11.2812,11.2812,0,0,1-3.3282-8.48v-22.4a11.2857,11.2857,0,0,1,3.3282-8.48,13.69,13.69,0,0,1,17.6318-.0323,11.0472,11.0472,0,0,1,3.36,8.3838v1.92a.566.566,0,0,1-.64.6407H438.958a.5654.5654,0,0,1-.64-.6407v-1.92a9.019,9.019,0,0,0-2.6563-6.7519,10.7705,10.7705,0,0,0-14.0161,0,9.0946,9.0946,0,0,0-2.6558,6.8164V79.5267a9.0367,9.0367,0,0,0,2.6875,6.8164,9.7141,9.7141,0,0,0,7.04,2.5918,9.5618,9.5618,0,0,0,6.9765-2.5595,8.9655,8.9655,0,0,0,2.6241-6.72v-8.32a.2268.2268,0,0,0-.2564-.2558h-8.3843a.5654.5654,0,0,1-.64-.6407V69.4154a.5662.5662,0,0,1,.64-.6406h10.4961a.5667.5667,0,0,1,.64.6406v9.9834a11.3465,11.3465,0,0,1-3.3277,8.5762,13.7344,13.7344,0,0,1-17.664-.0323Z"/>
      <path class="cls-2" d="M461.3838,89.5755a10.9043,10.9043,0,0,1-4.3525-4.5439,14.4642,14.4642,0,0,1-1.5357-6.7842V46.5033a.5657.5657,0,0,1,.64-.64h1.2159a.5659.5659,0,0,1,.64.64v32a10.543,10.543,0,0,0,2.7207,7.5517,10.36,10.36,0,0,0,14.336,0,10.5506,10.5506,0,0,0,2.72-7.5517v-32a.5655.5655,0,0,1,.64-.64h1.2163a.5661.5661,0,0,1,.64.64V78.2474a13.0121,13.0121,0,0,1-3.3921,9.376,11.8983,11.8983,0,0,1-9.0239,3.5518A12.8539,12.8539,0,0,1,461.3838,89.5755Z"/>
      <path class="cls-2" d="M495.9048,90.0228V46.5033a.5657.5657,0,0,1,.64-.64h1.2158a.5663.5663,0,0,1,.64.64v41.664a.2259.2259,0,0,0,.2558.2559h19.2a.5665.5665,0,0,1,.6407.64v.96a.5663.5663,0,0,1-.6407.6406H496.5449A.5656.5656,0,0,1,495.9048,90.0228Z"/>
      <path class="cls-2" d="M554.6436,90.1507l-2.4322-8.832a.2959.2959,0,0,0-.32-.1914H535.123a.2939.2939,0,0,0-.3193.1914l-2.3682,8.7686a.659.659,0,0,1-.7041.5761h-1.2158a.5888.5888,0,0,1-.48-.1923.5824.5824,0,0,1-.0957-.5118l12.0322-43.5839a.643.643,0,0,1,.7036-.5118h1.6a.6442.6442,0,0,1,.7041.5118l12.16,43.5839.0635.1914c0,.3428-.2138.5127-.64.5127h-1.2158A.6423.6423,0,0,1,554.6436,90.1507ZM535.5391,78.9193a.31.31,0,0,0,.2246.0957h15.4878a.31.31,0,0,0,.2241-.0957c.0635-.0645.0737-.1172.0317-.16l-7.8716-28.9277c-.0434-.085-.0864-.1279-.1284-.1279s-.0859.0429-.1279.1279l-7.8721,28.9277C535.4644,78.8021,535.4756,78.8548,535.5391,78.9193Z"/>
      <path class="cls-2" d="M592.4473,90.1507,583.68,69.4154a.2515.2515,0,0,0-.2559-.1924H573.44a.2263.2263,0,0,0-.2559.2559V90.0228a.566.566,0,0,1-.64.6406h-1.2164a.5654.5654,0,0,1-.64-.6406V46.5033a.5655.5655,0,0,1,.64-.64h12.5445a9.9783,9.9783,0,0,1,7.7436,3.2315A12.2019,12.2019,0,0,1,594.56,57.639a12.4342,12.4342,0,0,1-2.24,7.584,9.3626,9.3626,0,0,1-6.08,3.7442q-.2563.1288-.128.32l8.7041,20.6074.064.2558c0,.3428-.1919.5127-.5757.5127h-1.1523A.7027.7027,0,0,1,592.4473,90.1507ZM573.1836,48.3588v18.496a.2267.2267,0,0,0,.2559.2569h10.3037a7.6688,7.6688,0,0,0,6.0166-2.5928,9.878,9.878,0,0,0,2.3037-6.8154,10.2885,10.2885,0,0,0-2.272-6.9766,7.6035,7.6035,0,0,0-6.0483-2.624H573.44A.2263.2263,0,0,0,573.1836,48.3588Z"/>
    </g>
    <g>
      <path class="cls-3" d="M666.6564,59.6528a3.4939,3.4939,0,0,0-3.1993,0,2.656,2.656,0,0,0-1.0644,1.1016,3.4924,3.4924,0,0,0-.375,1.6484V67.645a3.4925,3.4925,0,0,0,.375,1.6485,2.6563,2.6563,0,0,0,1.0644,1.1015,3.4939,3.4939,0,0,0,3.1993,0,2.6563,2.6563,0,0,0,1.0644-1.1015,3.4926,3.4926,0,0,0,.3755-1.6485V62.4028a3.4925,3.4925,0,0,0-.3755-1.6484A2.656,2.656,0,0,0,666.6564,59.6528Z"/>
      <path class="cls-3" d="M679.8457,46h-66a2,2,0,0,0-2,2V81.9161a2,2,0,0,0,2,2h66a2,2,0,0,0,2-2V48A2,2,0,0,0,679.8457,46ZM633.9414,64.439a4.8219,4.8219,0,0,1-1.9751,1.914,6.1873,6.1873,0,0,1-2.9468.6768h-3.8022v6.9394h-3.3716V56.0786H629.02a6.1451,6.1451,0,0,1,2.9468.6826,4.85,4.85,0,0,1,1.9751,1.9258,6.2486,6.2486,0,0,1,0,5.752Zm15.8194,9.53-4.0335-7.1982h-2.0451v7.1982h-3.3716V56.0659h7.8379a4.9978,4.9978,0,0,1,2.5967.6641,4.5,4.5,0,0,1,1.7348,1.8769,6.7312,6.7312,0,0,1,0,5.6231,4.48,4.48,0,0,1-1.7412,1.8769,4.6347,4.6347,0,0,1-1.1708.4848l4.2777,7.3775Zm22.0849-6.4111a7.1411,7.1411,0,0,1-.812,3.4639,5.6848,5.6848,0,0,1-2.2949,2.3134,7.5833,7.5833,0,0,1-6.8535,0A5.6848,5.6848,0,0,1,659.59,71.022a7.1411,7.1411,0,0,1-.812-3.4639V62.4888a7.1438,7.1438,0,0,1,.812-3.4639,5.6966,5.6966,0,0,1,2.2949-2.3135,7.5916,7.5916,0,0,1,6.8535,0,5.6966,5.6966,0,0,1,2.2949,2.3135,7.1438,7.1438,0,0,1,.812,3.4639Z"/>
      <path class="cls-3" d="M629.9268,59.604a2.0522,2.0522,0,0,0-1.0767-.2773H624.962v4.4541H628.85a2.0284,2.0284,0,0,0,1.0645-.2764,1.8988,1.8988,0,0,0,.72-.7813,2.5017,2.5017,0,0,0,.2583-1.1572,2.6252,2.6252,0,0,0-.2519-1.1748A1.8484,1.8484,0,0,0,629.9268,59.604Z"/>
      <path class="cls-3" d="M648.5455,59.5728a1.6475,1.6475,0,0,0-.9228-.2588h-4.1958v4.2089h4.1958a1.6259,1.6259,0,0,0,.9106-.2587,1.6754,1.6754,0,0,0,.6089-.7383,2.8243,2.8243,0,0,0,.2275-1.1074,2.683,2.683,0,0,0-.2153-1.1075A1.6746,1.6746,0,0,0,648.5455,59.5728Z"/>
    </g>
    <g>
      <g>
        <path class="cls-1" d="M99.835,36.0577l-39-22.5167a12,12,0,0,0-12,0l-39,22.5166a12.0339,12.0339,0,0,0-6,10.3924V91.4833a12.0333,12.0333,0,0,0,6,10.3923l39,22.5167a12,12,0,0,0,12,0l39-22.5167a12.0331,12.0331,0,0,0,6-10.3923V46.45A12.0334,12.0334,0,0,0,99.835,36.0577Zm-2,55.4256a4,4,0,0,1-2,3.4641l-39,22.5167a4.0006,4.0006,0,0,1-4,0l-39-22.5167a4,4,0,0,1-2-3.4641V46.45a4,4,0,0,1,2-3.4642l39-22.5166a4,4,0,0,1,4,0l39,22.5166a4,4,0,0,1,2,3.4642Z"/>
        <path class="cls-1" d="M77.8567,82.0046h-2.866a4,4,0,0,0-1.9247.4934L55.7852,91.9833,35.835,80.4648V57.4872l19.95-11.5185,17.2893,9.4549a3.9993,3.9993,0,0,0,1.9192.4906h2.8632a2,2,0,0,0,2-2V51.2024a2,2,0,0,0-1.04-1.7547L59.628,38.9521a8.0391,8.0391,0,0,0-7.8428.09L31.8346,50.56a8.0246,8.0246,0,0,0-4,6.9287v22.976a8,8,0,0,0,4,6.9283l19.95,11.5186a8.0429,8.0429,0,0,0,7.8433.0879l19.19-10.5312a2,2,0,0,0,1.0378-1.7533v-2.71A2,2,0,0,0,77.8567,82.0046Z"/>
      </g>
      <g>
        <path class="cls-1" d="M172.58,45.3618a15.0166,15.0166,0,0,0-15,14.9995V77.6387a15,15,0,0,0,30,0V60.3613A15.0166,15.0166,0,0,0,172.58,45.3618Zm7,32.2769a7,7,0,0,1-14,0V60.3613a7,7,0,0,1,14,0Z"/>
        <path class="cls-1" d="M135.9138,53.4211a7.01,7.01,0,0,1,7.8681,6.0752.9894.9894,0,0,0,.9843.865h6.03a1.0108,1.0108,0,0,0,.9987-1.0971,15.0182,15.0182,0,0,0-15.7162-13.8837,15.2881,15.2881,0,0,0-14.2441,15.4163V77.2037A15.288,15.288,0,0,0,136.0792,92.62a15.0183,15.0183,0,0,0,15.7162-13.8842,1.0107,1.0107,0,0,0-.9987-1.0971h-6.03a.9894.9894,0,0,0-.9843.865,7.01,7.01,0,0,1-7.8679,6.0757,7.1642,7.1642,0,0,1-6.0789-7.1849V60.6057A7.1638,7.1638,0,0,1,135.9138,53.4211Z"/>
        <path class="cls-1" d="M218.7572,72.9277a12.1585,12.1585,0,0,0,7.1843-11.0771V58.1494A12.1494,12.1494,0,0,0,213.7921,46H196.835a1,1,0,0,0-1,1V91a1,1,0,0,0,1,1h6a1,1,0,0,0,1-1V74h6.6216l7.9154,17.4138a1,1,0,0,0,.91.5862h6.5911a1,1,0,0,0,.91-1.4138Zm-.8157-11.0771A4.1538,4.1538,0,0,1,213.7926,66h-9.8511V54h9.8511a4.1538,4.1538,0,0,1,4.1489,4.1494Z"/>
        <path class="cls-1" d="M260.835,46h-26a1,1,0,0,0-1,1V91a1,1,0,0,0,1,1h26a1,1,0,0,0,1-1V85a1,1,0,0,0-1-1h-19V72h13a1,1,0,0,0,1-1V65a1,1,0,0,0-1-1h-13V54h19a1,1,0,0,0,1-1V47A1,1,0,0,0,260.835,46Z"/>
        <path class="cls-1" d="M298.835,46h-6a1,1,0,0,0-1,1V69.6475a7.0066,7.0066,0,1,1-14,0V47a1,1,0,0,0-1-1h-6a1,1,0,0,0-1,1V69.6475a15.0031,15.0031,0,1,0,30,0V47A1,1,0,0,0,298.835,46Z"/>
        <rect class="cls-1" x="307.835" y="46" width="8" height="38" rx="1"/>
      </g>
    </g>
  </g>
</svg>
